<svg id="Capa_1" data-name="Capa 1" xmlns="http://www.w3.org/2000/svg" viewBox="0 0 5333 1500"><defs><style>.cls-1{fill:#28140e;}</style></defs><title>moon47store2</title><path class="cls-1" d="M1143.79,940.89c0,59.42,4.89,89.54,51.29,89.54v4.07H1021.69v-4.07c46.4,0,50.47-30.12,51.28-89.54V473.64L865.4,916.47h-7.32s-206-379.33-224.67-403.75V876.58c0,96.87,44.77,153.85,100.12,153.85v4.07H528.4v-4.07c55.35,0,100.94-57,100.94-153.85V507.83c-18.72-22.79-39.89-39.07-65.12-39.07v-4.07H690.39L896.33,843.2,1073,464.69h122.11v4.07c-46.4,0-51.29,30.12-51.29,89.54Z"/><path class="cls-1" d="M1686.73,815.53c4.07,113.15-67.56,215.71-183.15,226.29-118,11.4-227.92-62.68-235.25-188.85C1261,728.43,1345.66,633.19,1467,625.05,1581.72,616.91,1682.66,692.61,1686.73,815.53Zm-71.63,3.25c-6.51-100.93-64.31-197-148.15-190.47-88.73,7.32-136.76,95.23-127.8,219.78,9.77,127.8,75.7,201.87,164.43,190.48C1579.28,1028,1622.42,927.86,1615.1,818.78Z"/><path class="cls-1" d="M2175.93,815.53c4.07,113.15-67.56,215.71-183.15,226.29-118,11.4-227.92-62.68-235.25-188.85-7.32-124.54,77.33-219.78,198.62-227.92C2070.93,616.91,2171.86,692.61,2175.93,815.53Zm-71.63,3.25c-6.51-100.93-64.31-197-148.15-190.47-88.73,7.32-136.75,95.23-127.8,219.78,9.77,127.8,75.7,201.87,164.43,190.48C2068.49,1028,2111.63,927.86,2104.3,818.78Z"/><path class="cls-1" d="M2668.4,1030.43v4.07H2499.09v-4.07c46.4,0,51.28-30.12,51.28-89.54V750.41c0-54.54-9.77-120.48-88.73-120.48-34.19,0-84.65,29.31-103.38,79-.81,14.65-.81,30.94-.81,49.66V940.89c0,59.42,4.88,89.54,51.28,89.54v4.07H2238.6v-4.07c46.4,0,51.29-30.12,51.29-89.54V726c0-60.24-4.89-89.54-51.29-89.54v-4.07h132.69v4.07c-5.7,2.44-10.58,22-13,62.68,21.17-40.71,61.87-74.89,119.66-74.89,80.59,0,139.2,34.18,139.2,130.24V940.89C2617.93,1001.12,2622,1030.43,2668.4,1030.43Z"/><path class="cls-1" d="M3300.87,892.86c0,100.12-82.22,149.78-192.92,149.78-44,0-88.73-9.77-114.78-15.47-25.23-6.51-68.37-17.91-68.37,37.44h-4.07V859.48h4.07c0,47.22,54.53,179.09,183.15,179.09,74.07,0,124.54-47.22,124.54-114,0-144.07-297.93-153.84-297.93-325.6,0-96.87,83-142.45,169.32-142.45,45.58,0,83,14.65,118.84,23.61,29.31,8.14,44.77,0,44.77-44.77h4.07V640.52h-4.07c0-99.31-65.12-179.9-161.17-179.9-52.91,0-109.08,31.75-109.08,110.71C2997.24,708.89,3300.87,726.8,3300.87,892.86Z"/><path class="cls-1" d="M3579.25,1028v4.88c-9.77,5.7-23.61,9.77-44,9.77-54.54,0-119.66-19.54-119.66-116.41V636.45h-37.44v-4.07h37.44V603.07c31.75-4.07,52.91-15.46,62.68-61.05h4.07v90.36H3567v4.07h-84.65V930.3c0,55.36,12.21,106.64,65.12,106.64C3561.34,1036.94,3575.18,1030.43,3579.25,1028Z"/><path class="cls-1" d="M4042.41,815.53c4.07,113.15-67.56,215.71-183.15,226.29-118,11.4-227.93-62.68-235.25-188.85-7.33-124.54,77.33-219.78,198.62-227.92C3937.4,616.91,4038.34,692.61,4042.41,815.53Zm-71.63,3.25c-6.52-100.93-64.31-197-148.15-190.47-88.73,7.32-136.76,95.23-127.8,219.78,9.76,127.8,75.7,201.87,164.43,190.48C3935,1028,3978.1,927.86,3970.78,818.78Z"/><path class="cls-1" d="M4395.68,662.49c-.81,27.68-29.3,36.64-48,24.42-20.35-13-20.35-39.07-50.46-30.11-28.49,8.14-61.87,56.16-73.27,100.93l-.81,183.16c.81,59.42,4.88,89.54,51.28,89.54v4.07H4105.08v-4.07c46.4,0,51.28-30.12,51.28-89.54V726c0-60.24-4.88-89.54-51.28-89.54v-4.07H4237v4.07c-7.33,4.07-13,37.44-13.84,112.33,20.35-74.08,84.66-120.47,115.59-123.73C4371.26,621,4396.49,636.45,4395.68,662.49Z"/><path class="cls-1" d="M4647.67,628.55a22.55,22.55,0,0,1-4.25,3.63c-7.54,5.55-15,11.14-22.27,17.1a185.07,185.07,0,0,0-26.33,26.25,199,199,0,0,0-44.41,108.1,198.06,198.06,0,0,0,.84,46,202.82,202.82,0,0,0,14.65,52.25,197.81,197.81,0,0,0,19.59,35,202,202,0,0,0,43.32,45.34,196.83,196.83,0,0,0,43.48,25.24,201,201,0,0,0,32.93,10.89,240.63,240.63,0,0,0,27.88,4.29c12.52,1.37,25.06,1.06,37.6.76a34.6,34.6,0,0,1,5.09.15c.28,0,.66,0,.71.39s-.32.36-.52.5c-7.73,5.55-15.39,11.18-23.21,16.6-4.88,3.39-10.15,6.17-15.32,9.07a213.84,213.84,0,0,1-96.28,26.18,225.79,225.79,0,0,1-41.07-2.65A214.1,214.1,0,0,1,4475,986.3a217.21,217.21,0,0,1-25-33.41,213.59,213.59,0,0,1-18.81-39.52A210.24,210.24,0,0,1,4421,871.3a212.38,212.38,0,0,1-1.87-35.46,210,210,0,0,1,4.44-37,211.11,211.11,0,0,1,31.24-74.32,211.56,211.56,0,0,1,49.05-52.12A221.25,221.25,0,0,1,4534.7,653a212.92,212.92,0,0,1,54.49-19.43,209.76,209.76,0,0,1,38.59-4.59c6.25-.16,12.5-.38,18.75-.58A2,2,0,0,1,4647.67,628.55Z"/><path class="cls-1" d="M4735.49,1016.47a100.82,100.82,0,0,1-9.34,5.09,201.71,201.71,0,0,1-57.28,19,189.24,189.24,0,0,1-36.09,3c-22.35-.47-44.23-3.89-65.4-11.27a205.31,205.31,0,0,1-42.25-20.62,198,198,0,0,1-34.41-27.85,203.63,203.63,0,0,1-31.8-41.36,196.47,196.47,0,0,1-26.34-85.29,165.17,165.17,0,0,1-.33-25.36q1-12.18,2.87-24.26c2.8-18,8.8-35,16.59-51.35A195.64,195.64,0,0,1,4474.18,720a202.08,202.08,0,0,1,28.95-30,209.18,209.18,0,0,1,26.2-19,195.73,195.73,0,0,1,44.17-20,241.6,241.6,0,0,1,30.65-7.14,17,17,0,0,1,1.87-.21c.3,0,.72-.16.88.23s-.27.5-.46.69q-3.54,3.55-7.12,7.08a204.57,204.57,0,0,0-25.34,30.4,219.09,219.09,0,0,0-26,51.55,182.72,182.72,0,0,0-9.27,41.16c-.87,8.14-2,16.24-2.3,24.43a189.39,189.39,0,0,0,.79,21.83,204.06,204.06,0,0,0,6.32,35.79,225.9,225.9,0,0,0,17.68,45.24c6.93,13.4,15.83,25.42,25.17,37.18a193.94,193.94,0,0,0,28.1,28.11,209,209,0,0,0,30.76,21.24,220.33,220.33,0,0,0,32.9,15.11,202.73,202.73,0,0,0,46.3,11.16c3.47.4,6.92.84,10.38,1.27A.68.68,0,0,1,4735.49,1016.47Z"/><polygon class="cls-1" points="4772.5 605.32 4782.42 625.42 4804.6 628.64 4788.55 644.29 4792.34 666.38 4772.5 655.95 4752.66 666.38 4756.45 644.29 4740.4 628.64 4762.58 625.42 4772.5 605.32"/><path class="cls-1" d="M2691.21,841.33q0-.6.3-.75l50.35-60.12,5.71-6.76a3.65,3.65,0,0,1,2.7-1.05q4.36.3,4.36,4.06v64h5.11a1.19,1.19,0,0,1,1.35,1.35V846q0,1.5-1.35,1.5h-5.26v8.11q-.15,3.46,3.15,8.79t3.31,6.69v1.2a2,2,0,0,1-.68,1.43,2.15,2.15,0,0,1-1.57.68h-33.82a2,2,0,0,1-1.42-.68,1.89,1.89,0,0,1-.68-1.27,5,5,0,0,1,0-3,21.18,21.18,0,0,1,2.25-3.31,28,28,0,0,0,3.16-5.11,10.09,10.09,0,0,0,1.05-5v-8.56h-35.76a2.16,2.16,0,0,1-1.51-.75,2.3,2.3,0,0,1-.75-1.66Zm10.37-.6h27.65V807.67Z"/><path class="cls-1" d="M2850.36,772.35a1.14,1.14,0,0,1,.9.37.46.46,0,0,1,0,.68q-2,9.47-2.11,9.77A145.6,145.6,0,0,1,2838,798.72q-7.37,9.24-12.92,16.08a77.32,77.32,0,0,0-9.92,16.16,42.38,42.38,0,0,0-4.36,18,23.24,23.24,0,0,0,2.11,10.14,41.92,41.92,0,0,0,4.13,7.14q2,2.72,2,4.21a4.83,4.83,0,0,1-2.18,3.91,9.84,9.84,0,0,1-5.64,1.8,42.62,42.62,0,0,1-6,.45q-13.07,0-19.23-8.79a26.58,26.58,0,0,1-4.66-19.61q.9-8.12,6.76-16.31a72,72,0,0,1,12.4-13.6q6.54-5.4,14.2-11.57t10.37-9.47h-35.47a12.71,12.71,0,0,0-8.41,2.63,17.25,17.25,0,0,0-4.66,5.79c-1,2.1-1.8,3.26-2.41,3.46a5.66,5.66,0,0,1-1.8.3l-1.5-.15a2.66,2.66,0,0,1-1.43-.9,2.27,2.27,0,0,1-.68-1.51l6-26.6a10.14,10.14,0,0,1,3.75-5.78,10.61,10.61,0,0,1,6.61-2.18Z"/></svg>