<svg id="Capa_1" data-name="Capa 1" xmlns="http://www.w3.org/2000/svg" viewBox="0 0 2480 2480"><defs><style>.cls-1{fill:#fff;}.cls-2{fill:#d8a89c;}</style></defs><title>moon47store</title><path class="cls-1" d="M645.43,1314.54c0,23.2,1.91,35,20,35v1.59h-67.7v-1.59c18.12,0,19.71-11.76,20-35V1132.09L536.72,1305h-2.86s-80.42-148.12-87.73-157.66v142.09c0,37.82,17.49,60.07,39.1,60.07v1.59h-80.1v-1.59c21.61,0,39.41-22.25,39.41-60.07v-144c-7.31-8.9-15.57-15.26-25.42-15.26v-1.59h49.26l80.42,147.8,69-147.8h47.67v1.59c-18.11,0-20,11.76-20,35Z"/><path class="cls-1" d="M857.43,1265.59c1.59,44.18-26.38,84.23-71.52,88.36-46.09,4.45-89-24.47-91.86-73.74-2.86-48.63,30.2-85.82,77.56-89C816.43,1188,855.84,1217.59,857.43,1265.59Zm-28,1.27c-2.54-39.42-25.11-76.92-57.85-74.38-34.65,2.86-53.4,37.19-49.9,85.82,3.81,49.9,29.56,78.83,64.2,74.38C815.47,1348.55,832.32,1309.45,829.46,1266.86Z"/><path class="cls-1" d="M1048.45,1265.59c1.59,44.18-26.38,84.23-71.51,88.36-46.09,4.45-89-24.47-91.86-73.74-2.87-48.63,30.19-85.82,77.55-89C1007.45,1188,1046.86,1217.59,1048.45,1265.59Zm-28,1.27c-2.54-39.42-25.11-76.92-57.85-74.38-34.64,2.86-53.4,37.19-49.9,85.82,3.81,49.9,29.56,78.83,64.21,74.38C1006.5,1348.55,1023.34,1309.45,1020.48,1266.86Z"/><path class="cls-1" d="M1240.75,1349.5v1.59h-66.11v-1.59c18.11,0,20-11.76,20-35v-74.38c0-21.3-3.81-47-34.65-47-13.35,0-33,11.44-40.36,30.83-.32,5.72-.32,12.08-.32,19.39v71.2c0,23.2,1.91,35,20,35v1.59h-66.43v-1.59c18.12,0,20-11.76,20-35v-83.92c0-23.52-1.91-35-20-35v-1.59h51.81v1.59c-2.22.95-4.13,8.58-5.08,24.47,8.26-15.89,24.15-29.24,46.72-29.24,31.47,0,54.35,13.35,54.35,50.86v72.79C1221,1338.06,1222.63,1349.5,1240.75,1349.5Z"/><path class="cls-1" d="M1487.71,1295.78c0,39.1-32.1,58.49-75.33,58.49-17.16,0-34.65-3.82-44.82-6-9.85-2.54-26.7-7-26.7,14.62h-1.59v-80.1h1.59c0,18.44,21.3,69.93,71.52,69.93,28.93,0,48.63-18.44,48.63-44.5,0-56.26-116.33-60.07-116.33-127.14,0-37.83,32.42-55.63,66.11-55.63,17.8,0,32.42,5.72,46.41,9.22,11.44,3.18,17.48,0,17.48-17.48h1.59v80.1h-1.59c0-38.78-25.43-70.25-62.94-70.25-20.66,0-42.59,12.4-42.59,43.23C1369.15,1224,1487.71,1230.94,1487.71,1295.78Z"/><path class="cls-1" d="M1596.41,1348.55v1.9c-3.81,2.23-9.22,3.82-17.16,3.82-21.3,0-46.73-7.63-46.73-45.45V1195.66H1517.9v-1.59h14.62v-11.44c12.4-1.59,20.66-6,24.48-23.84h1.59v35.28h33.05v1.59h-33.05v114.75c0,21.61,4.76,41.63,25.42,41.63A27.64,27.64,0,0,0,1596.41,1348.55Z"/><path class="cls-1" d="M1777.27,1265.59c1.58,44.18-26.39,84.23-71.52,88.36-46.09,4.45-89-24.47-91.86-73.74-2.86-48.63,30.19-85.82,77.55-89C1736.26,1188,1775.68,1217.59,1777.27,1265.59Zm-28,1.27c-2.54-39.42-25.11-76.92-57.85-74.38-34.64,2.86-53.4,37.19-49.9,85.82,3.81,49.9,29.56,78.83,64.21,74.38C1735.31,1348.55,1752.15,1309.45,1749.29,1266.86Z"/><path class="cls-1" d="M1915.21,1205.83c-.32,10.81-11.44,14.3-18.75,9.54-8-5.09-8-15.26-19.71-11.76-11.13,3.17-24.16,21.93-28.61,39.41l-.32,71.52c.32,23.2,1.91,35,20,35v1.59h-66.12v-1.59c18.12,0,20-11.76,20-35v-83.92c0-23.52-1.91-35-20-35v-1.59h51.5v1.59c-2.86,1.59-5.09,14.62-5.41,43.86,8-28.92,33.06-47,45.14-48.31C1905.67,1189.62,1915.53,1195.66,1915.21,1205.83Z"/><path class="cls-1" d="M2013.59,1192.57a8.51,8.51,0,0,1-1.66,1.42c-2.94,2.17-5.87,4.35-8.69,6.68a71.66,71.66,0,0,0-10.28,10.25,77.55,77.55,0,0,0-17.34,42.21,76.71,76.71,0,0,0,.33,18,78.94,78.94,0,0,0,5.72,20.4,76.73,76.73,0,0,0,7.64,13.68,79,79,0,0,0,16.92,17.7,76.55,76.55,0,0,0,17,9.86,79.39,79.39,0,0,0,12.86,4.25,94.94,94.94,0,0,0,10.88,1.67,109,109,0,0,0,14.68.3,14.65,14.65,0,0,1,2,.06c.11,0,.26,0,.28.15s-.13.14-.2.2c-3,2.16-6,4.36-9.07,6.48-1.9,1.32-4,2.41-6,3.54a83.4,83.4,0,0,1-37.6,10.22,87.78,87.78,0,0,1-16-1,83.64,83.64,0,0,1-48.85-26.33,85,85,0,0,1-9.75-13,83.56,83.56,0,0,1-7.34-15.43,82.28,82.28,0,0,1-4-16.43,83.24,83.24,0,0,1-.73-13.84,83.71,83.71,0,0,1,5.3-26.71,84,84,0,0,1,8.63-16.78,82.94,82.94,0,0,1,19.16-20.35,85.85,85.85,0,0,1,12-7.57,83.26,83.26,0,0,1,21.28-7.59,81.29,81.29,0,0,1,15.07-1.79c2.44-.06,4.88-.15,7.32-.23A.82.82,0,0,1,2013.59,1192.57Z"/><path class="cls-1" d="M2047.88,1344.05a37.77,37.77,0,0,1-3.64,2,78.76,78.76,0,0,1-22.37,7.44,74,74,0,0,1-14.09,1.17,82.26,82.26,0,0,1-25.54-4.4,80.19,80.19,0,0,1-16.49-8,76.94,76.94,0,0,1-13.44-10.88,78.85,78.85,0,0,1-12.42-16.15,76.94,76.94,0,0,1-10.29-33.3,65.45,65.45,0,0,1-.12-9.9c.25-3.17.63-6.33,1.12-9.47a72.34,72.34,0,0,1,6.48-20.06,76.13,76.13,0,0,1,8.77-14.14,78.21,78.21,0,0,1,11.31-11.7,80.46,80.46,0,0,1,10.23-7.44,76.08,76.08,0,0,1,17.24-7.8,94.06,94.06,0,0,1,12-2.79,6,6,0,0,1,.73-.08c.12,0,.28-.06.34.09s-.1.19-.18.27c-.92.92-1.84,1.85-2.77,2.76a79.62,79.62,0,0,0-9.9,11.87,85.5,85.5,0,0,0-10.15,20.13,71,71,0,0,0-3.62,16.07c-.34,3.18-.8,6.34-.9,9.54a73.62,73.62,0,0,0,.31,8.53,79.86,79.86,0,0,0,2.47,14,88,88,0,0,0,6.9,17.67,89.6,89.6,0,0,0,9.83,14.51,75.91,75.91,0,0,0,11,11,80.4,80.4,0,0,0,12,8.29,85.72,85.72,0,0,0,12.85,5.9,78.59,78.59,0,0,0,18.08,4.36l4,.5C2047.7,1343.93,2047.8,1343.9,2047.88,1344.05Z"/><polygon class="cls-1" points="2062.34 1183.5 2066.21 1191.35 2074.87 1192.61 2068.6 1198.72 2070.08 1207.35 2062.34 1203.27 2054.59 1207.35 2056.07 1198.72 2049.8 1192.61 2058.46 1191.35 2062.34 1183.5"/><path class="cls-2" d="M1249.65,1275.66c0-.15,0-.25.12-.29l19.65-23.47,2.23-2.64a1.43,1.43,0,0,1,1.06-.42c1.13.08,1.7.61,1.7,1.59v25h2a.46.46,0,0,1,.52.52v1.53c0,.39-.17.59-.52.59h-2.06v3.17a6.47,6.47,0,0,0,1.23,3.43,8.27,8.27,0,0,1,1.3,2.61v.47a.78.78,0,0,1-.27.56.87.87,0,0,1-.62.26h-13.2a.83.83,0,0,1-.56-.26.78.78,0,0,1-.26-.5,1.91,1.91,0,0,1,0-1.18,8.71,8.71,0,0,1,.88-1.29,10.74,10.74,0,0,0,1.23-2,3.87,3.87,0,0,0,.41-1.94v-3.34h-14a.84.84,0,0,1-.59-.3.9.9,0,0,1-.29-.64Zm4-.23h10.79v-12.91Z"/><path class="cls-2" d="M1311.79,1248.73a.45.45,0,0,1,.35.14.18.18,0,0,1,0,.27c-.51,2.46-.78,3.73-.82,3.81A58.24,58.24,0,0,1,1307,1259q-2.88,3.6-5,6.27a30.14,30.14,0,0,0-3.87,6.31,16.54,16.54,0,0,0-1.7,7,9.07,9.07,0,0,0,.82,4,16.16,16.16,0,0,0,1.61,2.79,3.2,3.2,0,0,1,.79,1.65,1.87,1.87,0,0,1-.85,1.52,3.82,3.82,0,0,1-2.2.71,17.69,17.69,0,0,1-2.35.17q-5.1,0-7.51-3.43a10.42,10.42,0,0,1-1.82-7.66,13.63,13.63,0,0,1,2.65-6.37,27.91,27.91,0,0,1,4.84-5.31q2.55-2.1,5.54-4.52a29.31,29.31,0,0,0,4-3.69h-13.85a5,5,0,0,0-3.28,1,6.81,6.81,0,0,0-1.82,2.26c-.39.83-.71,1.28-.94,1.35a2.21,2.21,0,0,1-.71.12l-.58-.06a1,1,0,0,1-.56-.35.87.87,0,0,1-.26-.59l2.34-10.38a4,4,0,0,1,1.47-2.26,4.1,4.1,0,0,1,2.58-.85Z"/></svg>