<svg id="Capa_1" data-name="Capa 1" xmlns="http://www.w3.org/2000/svg" xmlns:xlink="http://www.w3.org/1999/xlink" viewBox="0 0 360 720"><defs><style>.cls-1{clip-path:url(#clip-path);}.cls-2{fill:#28140e;}.cls-3{fill:#fff;}</style><clipPath id="clip-path"/></defs><title>shop_animation_background</title><g class="cls-1"><path class="cls-2" d="M22,422.2a56.61,56.61,0,0,1-56.61,56.62A56.62,56.62,0,0,1-91.28,422.2a56.62,56.62,0,0,1,56.62-56.62A56.61,56.61,0,0,1,22,422.2Z"/><path class="cls-3" d="M59.93,107.44A5.45,5.45,0,1,1,54.48,102,5.45,5.45,0,0,1,59.93,107.44Z"/><path class="cls-3" d="M44.76,107.44A5.45,5.45,0,1,1,39.31,102,5.45,5.45,0,0,1,44.76,107.44Z"/><path class="cls-3" d="M75.09,107.44A5.45,5.45,0,1,1,69.65,102,5.45,5.45,0,0,1,75.09,107.44Z"/><path class="cls-3" d="M59.93,122.6a5.45,5.45,0,1,1-5.45-5.45A5.45,5.45,0,0,1,59.93,122.6Z"/><path class="cls-3" d="M44.76,122.6a5.45,5.45,0,1,1-5.45-5.45A5.45,5.45,0,0,1,44.76,122.6Z"/><path class="cls-3" d="M75.09,122.6a5.45,5.45,0,1,1-5.44-5.45A5.45,5.45,0,0,1,75.09,122.6Z"/><path class="cls-3" d="M59.93,92.27a5.45,5.45,0,1,1-5.45-5.45A5.45,5.45,0,0,1,59.93,92.27Z"/><path class="cls-3" d="M44.76,92.27a5.45,5.45,0,1,1-5.45-5.45A5.45,5.45,0,0,1,44.76,92.27Z"/><path class="cls-3" d="M75.09,92.27a5.45,5.45,0,1,1-5.44-5.45A5.45,5.45,0,0,1,75.09,92.27Z"/><path class="cls-2" d="M591.7,13.61A176.35,176.35,0,1,1,415.35-162.74,176.34,176.34,0,0,1,591.7,13.61Z"/><circle class="cls-2" cx="180" cy="656.76" r="167.71" transform="translate(-85.58 29.7) rotate(-7.63)"/><path class="cls-2" d="M328.91,445.44a5.45,5.45,0,1,1-5.45-5.45A5.45,5.45,0,0,1,328.91,445.44Z"/><path class="cls-2" d="M313.74,445.44a5.45,5.45,0,1,1-5.45-5.45A5.45,5.45,0,0,1,313.74,445.44Z"/><path class="cls-2" d="M344.08,445.44a5.45,5.45,0,1,1-5.45-5.45A5.45,5.45,0,0,1,344.08,445.44Z"/><path class="cls-2" d="M328.91,460.6a5.45,5.45,0,1,1-5.45-5.44A5.44,5.44,0,0,1,328.91,460.6Z"/><path class="cls-2" d="M313.74,460.6a5.45,5.45,0,1,1-5.45-5.44A5.44,5.44,0,0,1,313.74,460.6Z"/><path class="cls-2" d="M344.08,460.6a5.45,5.45,0,1,1-5.45-5.44A5.44,5.44,0,0,1,344.08,460.6Z"/><path class="cls-2" d="M328.91,430.27a5.45,5.45,0,1,1-5.45-5.45A5.45,5.45,0,0,1,328.91,430.27Z"/><path class="cls-2" d="M313.74,430.27a5.45,5.45,0,1,1-5.45-5.45A5.45,5.45,0,0,1,313.74,430.27Z"/><path class="cls-2" d="M344.08,430.27a5.45,5.45,0,1,1-5.45-5.45A5.45,5.45,0,0,1,344.08,430.27Z"/></g></svg>